<svg width="68" height="68" viewBox="0 0 68 68" fill="none" xmlns="http://www.w3.org/2000/svg">
<path d="M0 0H68V68H8C3.58172 68 0 64.4183 0 60V0Z" fill="#FF411C"/>
<path d="M51.6255 25.245L40.0819 26.6641C36.752 27.1007 34.1991 29.9389 34.1991 33.3229V34.3054L49.5165 32.4496L34.1991 45.549V16.4029C34.1991 15.6387 34.0881 14.9838 33.7552 14.3288C32.7562 12.5822 30.9803 11.8181 29.0933 12.0364C27.7614 12.2547 26.6514 13.0188 25.9855 14.1105L12 36.9253L25.7635 35.2878C26.7624 35.1787 27.5394 35.9428 27.6504 36.8161L27.8724 43.0383L28.2054 52.972C28.2054 54.282 29.0933 55.3736 30.3143 55.8102C31.5352 56.2469 32.8672 55.9194 33.7552 54.9369L55.1773 31.358C57.2862 28.9565 55.0663 24.8083 51.6255 25.245Z" fill="#FFFBFA"/>
</svg>
